<mxfile host="app.diagrams.net" modified="2023-02-07T06:43:15.463Z" agent="5.0 (Windows NT 10.0; Win64; x64) AppleWebKit/537.36 (KHTML, like Gecko) Chrome/109.0.0.0 Safari/537.36" etag="awJzEGBJSVEra_bmKcPm" version="20.8.16" type="github">
  <diagram name="第 1 页" id="XACls2P_qLEztrRlqASP">
    <mxGraphModel dx="1050" dy="549" grid="1" gridSize="10" guides="1" tooltips="1" connect="1" arrows="1" fold="1" page="1" pageScale="1" pageWidth="827" pageHeight="1169" math="0" shadow="0">
      <root>
        <mxCell id="0" />
        <mxCell id="1" parent="0" />
        <mxCell id="BV6tJLWm4HgsaUineyhZ-6" style="edgeStyle=orthogonalEdgeStyle;rounded=0;orthogonalLoop=1;jettySize=auto;html=1;entryX=0;entryY=0.5;entryDx=0;entryDy=0;" edge="1" parent="1" source="VxjZSW9rGk-oVchO5s52-1" target="BV6tJLWm4HgsaUineyhZ-3">
          <mxGeometry relative="1" as="geometry" />
        </mxCell>
        <mxCell id="VxjZSW9rGk-oVchO5s52-1" value="第一步" style="rounded=0;whiteSpace=wrap;html=1;" parent="1" vertex="1">
          <mxGeometry x="90" y="170" width="120" height="60" as="geometry" />
        </mxCell>
        <mxCell id="BV6tJLWm4HgsaUineyhZ-5" value="" style="edgeStyle=orthogonalEdgeStyle;rounded=0;orthogonalLoop=1;jettySize=auto;html=1;" edge="1" parent="1" source="BV6tJLWm4HgsaUineyhZ-3" target="BV6tJLWm4HgsaUineyhZ-4">
          <mxGeometry relative="1" as="geometry" />
        </mxCell>
        <mxCell id="BV6tJLWm4HgsaUineyhZ-3" value="" style="rounded=0;whiteSpace=wrap;html=1;" vertex="1" parent="1">
          <mxGeometry x="280" y="170" width="120" height="60" as="geometry" />
        </mxCell>
        <mxCell id="BV6tJLWm4HgsaUineyhZ-4" value="" style="rounded=0;whiteSpace=wrap;html=1;" vertex="1" parent="1">
          <mxGeometry x="280" y="290" width="120" height="60" as="geometry" />
        </mxCell>
      </root>
    </mxGraphModel>
  </diagram>
</mxfile>
